<svg xmlns="http://www.w3.org/2000/svg" version="1.1" width="64" height="64">
<path d="M0 0 C1.18154663 -0.00430527 1.18154663 -0.00430527 2.38696289 -0.00869751 C4.05127685 -0.01073772 5.71561481 -0.00521082 7.37988281 0.00732422 C9.92827947 0.02337941 12.47509021 0.00747506 15.0234375 -0.01171875 C16.6406285 -0.00973631 18.25781852 -0.00589261 19.875 0 C20.63756104 -0.00607269 21.40012207 -0.01214539 22.18579102 -0.0184021 C27.43448537 0.05142285 27.43448537 0.05142285 29.63809204 1.57162476 C31.44758026 4.11554957 31.3183736 5.90804379 31.32568359 9.015625 C31.33514008 10.16691895 31.34459656 11.31821289 31.3543396 12.50439453 C31.34826691 13.74817871 31.34219421 14.99196289 31.3359375 16.2734375 C31.33880768 17.54944824 31.34167786 18.82545898 31.34463501 20.14013672 C31.34667835 22.84047866 31.34263392 25.54000831 31.32861328 28.24023438 C31.31152089 31.7006298 31.32136307 35.16032721 31.33933067 38.62069702 C31.35278016 41.92163556 31.34336244 45.22248986 31.3359375 48.5234375 C31.34504654 50.38911377 31.34504654 50.38911377 31.3543396 52.29248047 C31.34488312 53.44377441 31.33542664 54.59506836 31.32568359 55.78125 C31.32329681 56.79590332 31.32091003 57.81055664 31.31845093 58.85595703 C30.9375 61.3984375 30.9375 61.3984375 29.63809204 63.22525024 C26.71111198 65.24448567 23.30746128 64.82420958 19.875 64.796875 C18.69345337 64.80118027 18.69345337 64.80118027 17.48803711 64.80557251 C15.82372315 64.80761272 14.15938519 64.80208582 12.49511719 64.78955078 C9.94672053 64.77349559 7.39990979 64.78939994 4.8515625 64.80859375 C3.2343715 64.80661131 1.61718148 64.80276761 0 64.796875 C-0.76256104 64.80294769 -1.52512207 64.80902039 -2.31079102 64.8152771 C-7.55948537 64.74545215 -7.55948537 64.74545215 -9.76309204 63.22525024 C-11.57258026 60.68132543 -11.4433736 58.88883121 -11.45068359 55.78125 C-11.46014008 54.62995605 -11.46959656 53.47866211 -11.4793396 52.29248047 C-11.47326691 51.04869629 -11.46719421 49.80491211 -11.4609375 48.5234375 C-11.46380768 47.24742676 -11.46667786 45.97141602 -11.46963501 44.65673828 C-11.47167835 41.95639634 -11.46763392 39.25686669 -11.45361328 36.55664062 C-11.43652089 33.0962452 -11.44636307 29.63654779 -11.46433067 26.17617798 C-11.47778016 22.87523944 -11.46836244 19.57438514 -11.4609375 16.2734375 C-11.46701019 15.02965332 -11.47308289 13.78586914 -11.4793396 12.50439453 C-11.46515488 10.77745361 -11.46515488 10.77745361 -11.45068359 9.015625 C-11.44829681 8.00097168 -11.44591003 6.98631836 -11.44345093 5.94091797 C-11.0625 3.3984375 -11.0625 3.3984375 -9.76309204 1.57162476 C-6.83611198 -0.44761067 -3.43246128 -0.02733458 0 0 Z M-7.0625 3.3984375 C-8.33192299 5.93728349 -8.18951165 7.70894041 -8.19189453 10.55078125 C-8.19504669 11.62529541 -8.19819885 12.69980957 -8.20144653 13.80688477 C-8.1994223 14.97147217 -8.19739807 16.13605957 -8.1953125 17.3359375 C-8.19626923 18.52695068 -8.19722595 19.71796387 -8.19821167 20.94506836 C-8.19889315 23.46696017 -8.1970411 25.98885373 -8.19287109 28.51074219 C-8.18752243 32.38220134 -8.19281721 36.25354448 -8.19921875 40.125 C-8.19855796 42.57031276 -8.19727679 45.01562544 -8.1953125 47.4609375 C-8.19733673 48.6255249 -8.19936096 49.7901123 -8.20144653 50.98999023 C-8.19829437 52.06450439 -8.19514221 53.13901855 -8.19189453 54.24609375 C-8.19109894 55.19492432 -8.19030334 56.14375488 -8.18948364 57.12133789 C-8.21173834 59.43056 -8.21173834 59.43056 -7.0625 61.3984375 C4.1575 61.3984375 15.3775 61.3984375 26.9375 61.3984375 C28.20692299 58.85959151 28.06451165 57.08793459 28.06689453 54.24609375 C28.07162277 52.63432251 28.07162277 52.63432251 28.07644653 50.98999023 C28.0744223 49.82540283 28.07239807 48.66081543 28.0703125 47.4609375 C28.07126923 46.26992432 28.07222595 45.07891113 28.07321167 43.85180664 C28.07389315 41.32991483 28.0720411 38.80802127 28.06787109 36.28613281 C28.06252243 32.41467366 28.06781721 28.54333052 28.07421875 24.671875 C28.07355796 22.22656224 28.07227679 19.78124956 28.0703125 17.3359375 C28.07233673 16.1713501 28.07436096 15.0067627 28.07644653 13.80688477 C28.07329437 12.73237061 28.07014221 11.65785645 28.06689453 10.55078125 C28.06609894 9.60195068 28.06530334 8.65312012 28.06448364 7.67553711 C28.08673834 5.366315 28.08673834 5.366315 26.9375 3.3984375 C24.9575 3.3984375 22.9775 3.3984375 20.9375 3.3984375 C20.9375 4.7184375 20.9375 6.0384375 20.9375 7.3984375 C13.6775 7.3984375 6.4175 7.3984375 -1.0625 7.3984375 C-1.0625 6.0784375 -1.0625 4.7584375 -1.0625 3.3984375 C-3.0425 3.3984375 -5.0225 3.3984375 -7.0625 3.3984375 Z M1.9375 3.3984375 C1.9375 4.0584375 1.9375 4.7184375 1.9375 5.3984375 C7.2175 5.3984375 12.4975 5.3984375 17.9375 5.3984375 C17.9375 4.7384375 17.9375 4.0784375 17.9375 3.3984375 C12.6575 3.3984375 7.3775 3.3984375 1.9375 3.3984375 Z " fill="#ffffff" transform="translate(22.0625,-0.3984375)"/>
<path d="M0 0 C2.31 0 4.62 0 7 0 C7.33 1.32 7.66 2.64 8 4 C8.69150146 4.02505615 9.38300293 4.0501123 10.09545898 4.07592773 C13.20967866 4.19152161 16.32356789 4.31441242 19.4375 4.4375 C20.52611328 4.47681641 21.61472656 4.51613281 22.73632812 4.55664062 C24.28803711 4.61948242 24.28803711 4.61948242 25.87109375 4.68359375 C26.82943115 4.72025146 27.78776855 4.75690918 28.77514648 4.79467773 C31 5 31 5 32 6 C32.48723229 11.84678744 31.23808069 16.59613678 29 22 C28 23 28 23 25.95874023 23.11352539 C25.08419189 23.10828857 24.20964355 23.10305176 23.30859375 23.09765625 C22.36435547 23.09443359 21.42011719 23.09121094 20.44726562 23.08789062 C19.45404297 23.07951172 18.46082031 23.07113281 17.4375 23.0625 C16.44041016 23.05798828 15.44332031 23.05347656 14.41601562 23.04882812 C11.94395151 23.03700007 9.47200482 23.02051849 7 23 C7 23.66 7 24.32 7 25 C14.59 25 22.18 25 30 25 C30 25.99 30 26.98 30 28 C29.01 28 28.02 28 27 28 C26.67 29.65 26.34 31.3 26 33 C24.1875 33.625 24.1875 33.625 22 34 C21.01 33.34 20.02 32.68 19 32 C19 30.68 19 29.36 19 28 C17.35 28 15.7 28 14 28 C13.67 29.65 13.34 31.3 13 33 C11.1875 33.625 11.1875 33.625 9 34 C5.59243919 31.72829279 5.1304589 30.82616857 4 27 C3.75 23.8125 3.75 23.8125 4 21 C4.66 20.34 5.32 19.68 6 19 C5.81864449 16.23286597 5.5356614 13.6080224 5.125 10.875 C5.02058594 10.12089844 4.91617187 9.36679687 4.80859375 8.58984375 C4.54895402 6.72515844 4.27574971 4.86237113 4 3 C2.68 3 1.36 3 0 3 C0 2.01 0 1.02 0 0 Z M8 8 C8.66 11.96 9.32 15.92 10 20 C15.28 20 20.56 20 26 20 C26.7425 18.14375 26.7425 18.14375 27.5 16.25 C27.7784375 15.55390625 28.056875 14.8578125 28.34375 14.140625 C29.19540327 11.73577305 29.19540327 11.73577305 29 8 C22.07 8 15.14 8 8 8 Z M10 28 C9.67 28.66 9.34 29.32 9 30 C9.66 30 10.32 30 11 30 C10.67 29.34 10.34 28.68 10 28 Z " fill="#B90808" transform="translate(16,16)"/>
<path d="M0 0 C4.62 0 9.24 0 14 0 C14 0.99 14 1.98 14 3 C9.38 3 4.76 3 0 3 C0 2.01 0 1.02 0 0 Z " fill="#ffffff" transform="translate(25,57)"/>
</svg>