<svg xmlns="http://www.w3.org/2000/svg" version="1.1" width="64" height="64">
<path d="M0 0 C21.12 0 42.24 0 64 0 C64 1.32 64 2.64 64 4 C63.01 4 62.02 4 61 4 C60.67 4.99 60.34 5.98 60 7 C58.109375 7.51953125 58.109375 7.51953125 55.75 7.8125 C52.20955459 8.47774293 50.33155884 9.15334444 48 11.9375 C45.90459565 14.86294419 45.90459565 14.86294419 45 18 C45.598125 18.268125 46.19625 18.53625 46.8125 18.8125 C49.04237457 20.02300334 50.45490692 20.991379 52 23 C52 24.32 52 25.64 52 27 C49.06296616 26.37063561 46.66211372 25.37579827 44 24 C42.98679687 24.77537109 42.98679687 24.77537109 41.953125 25.56640625 C41.06109375 26.22511719 40.1690625 26.88382813 39.25 27.5625 C38.36828125 28.22378906 37.4865625 28.88507812 36.578125 29.56640625 C34 31 34 31 31.671875 30.71484375 C31.12015625 30.47894531 30.5684375 30.24304688 30 30 C29.94457031 29.2884375 29.88914062 28.576875 29.83203125 27.84375 C28.7330702 24.08767656 26.4801443 22.07949293 23.6875 19.5 C20.88878227 16.85326562 18.22680107 14.30826081 15.93359375 11.19140625 C14.21279671 8.82229744 14.21279671 8.82229744 11.7109375 8.43359375 C10.94007812 8.43488281 10.16921875 8.43617187 9.375 8.4375 C7.0234375 8.43359375 7.0234375 8.43359375 5 8 C3.7265625 5.97265625 3.7265625 5.97265625 3 4 C2.01 4 1.02 4 0 4 C0 2.68 0 1.36 0 0 Z M28 8 C28.99 8.99 29.98 9.98 31 11 C34.61462786 10.92421045 34.61462786 10.92421045 38 10 C38.33 9.34 38.66 8.68 39 8 C35.37 8 31.74 8 28 8 Z M23 11 C24.53643852 14.68069887 26.78150945 16.98775204 29.625 19.75 C30.44226563 20.54921875 31.25953125 21.3484375 32.1015625 22.171875 C32.72804688 22.77515625 33.35453125 23.3784375 34 24 C37.54518884 22.60240095 37.54518884 22.60240095 41 21 C41 18.36 41 15.72 41 13 C40.01 13.33 39.02 13.66 38 14 C31.99797364 14.40013509 28.36814025 13.68407013 23 11 Z " fill="#fff" transform="translate(0,33)"/>
<path d="M0 0 C2.31 0 4.62 0 7 0 C7.33 1.65 7.66 3.3 8 5 C8.99 5.061875 9.98 5.12375 11 5.1875 C18.0141101 6.22190412 23.42239646 10.6900269 27.74609375 16.109375 C31.06968497 21.1206465 32.45224554 25.97005946 32 32 C30.12109375 31.82421875 30.12109375 31.82421875 28 31 C26.91015625 28.70703125 26.91015625 28.70703125 26.0625 25.8125 C23.86480694 19.26184734 21.48424374 15.18937471 15.3125 11.6875 C8.55290741 8.6874561 2.39160642 8.25558364 -4.6875 10.4375 C-10.24415234 12.74032763 -13.93879472 15.80389075 -17 21 C-17.9322073 23.65851711 -18.64687932 26.23439658 -19.19921875 28.99609375 C-19.46347656 29.65738281 -19.72773438 30.31867187 -20 31 C-22.08203125 31.78515625 -22.08203125 31.78515625 -24 32 C-24.6086165 24.84875609 -22.70623779 19.37545929 -18.19921875 13.75390625 C-14.17185512 9.49193891 -10.61684622 6.72826038 -5 5 C-3.68 5 -2.36 5 -1 5 C-0.67 3.35 -0.34 1.7 0 0 Z " fill="#fff" transform="translate(28,0)"/>
<path d="M0 0 C5.00850083 2.30793251 7.64581714 4.80952406 10.515625 9.50390625 C11.37667207 11.91295598 11.07337479 13.1289257 10.23046875 15.50390625 C6.31842218 14.02002652 5.31984726 12.01406215 3.23046875 8.50390625 C0.96777674 6.51715229 -1.0778582 4.84974278 -3.76953125 3.50390625 C-3.76953125 2.51390625 -3.76953125 1.52390625 -3.76953125 0.50390625 C-1.76953125 -0.49609375 -1.76953125 -0.49609375 0 0 Z " fill="#B90808" transform="translate(40.76953125,11.49609375)"/>
</svg>