<svg xmlns="http://www.w3.org/2000/svg" version="1.1" width="64" height="64">
<path d="M0 0 C0.66 0 1.32 0 2 0 C2.07347656 1.46373047 2.07347656 1.46373047 2.1484375 2.95703125 C2.22320312 4.22933594 2.29796875 5.50164063 2.375 6.8125 C2.44460938 8.07707031 2.51421875 9.34164063 2.5859375 10.64453125 C2.76102939 14.12755234 2.76102939 14.12755234 5 17 C7.5 17.41666667 7.5 17.41666667 10 17 C12.84614024 14.15385976 12.45579076 11.19630858 12.625 7.375 C12.68300781 6.31539062 12.68300781 6.31539062 12.7421875 5.234375 C12.83647724 3.49001476 12.91932891 1.74504309 13 0 C13.99 0 14.98 0 16 0 C16.33 1.32 16.66 2.64 17 4 C17.886875 3.525625 18.77375 3.05125 19.6875 2.5625 C27.1176454 -0.94228557 34.03657014 -0.88540528 41.6875 1.8125 C45.38603233 3.20948544 48.65318625 4.89542703 52 7 C52.7425 6.175 53.485 5.35 54.25 4.5 C57 2 57 2 61 2 C61.07600577 9.61712256 61.1285813 17.23414747 61.16479492 24.8515625 C61.17989015 27.44339655 61.20036824 30.03520503 61.22631836 32.62695312 C61.26266827 36.35032459 61.2797192 40.0733586 61.29296875 43.796875 C61.30845261 44.95741394 61.32393646 46.11795288 61.33988953 47.31365967 C61.34011612 48.39447815 61.34034271 49.47529663 61.34057617 50.58886719 C61.34723801 51.53928894 61.35389984 52.48971069 61.36076355 53.46893311 C60.9397665 56.42258987 59.96074873 57.79647688 58 60 C52.125 59.125 52.125 59.125 51 58 C50.92773498 56.14712498 50.9161878 54.29166122 50.9375 52.4375 C50.94652344 51.42558594 50.95554688 50.41367187 50.96484375 49.37109375 C50.97644531 48.58863281 50.98804688 47.80617187 51 47 C50.39671875 47.42152344 49.7934375 47.84304687 49.171875 48.27734375 C47.97304687 49.09912109 47.97304687 49.09912109 46.75 49.9375 C45.96109375 50.48277344 45.1721875 51.02804688 44.359375 51.58984375 C38.54704782 55.06376777 31.56524524 54.69859017 25 54 C21.13442539 52.62369644 16.95271268 50.95271268 14 48 C13.96261719 48.61488281 13.92523438 49.22976562 13.88671875 49.86328125 C13.82097656 50.67152344 13.75523438 51.47976562 13.6875 52.3125 C13.62949219 53.11300781 13.57148438 53.91351563 13.51171875 54.73828125 C12.90692182 57.41139135 12.20366728 58.39685816 10 60 C6.9375 59.875 6.9375 59.875 4 59 C1.45606971 55.18410456 1.88951825 52.32487964 2.12890625 47.9375 C2.19489305 46.32032193 2.26064097 44.7031341 2.32617188 43.0859375 C2.44206324 40.53780388 2.56299412 37.99002613 2.68920898 35.44238281 C2.80724827 32.98279552 2.90649818 30.5229778 3.00390625 28.0625 C3.06935387 26.91865845 3.06935387 26.91865845 3.13612366 25.75170898 C3.38028877 21.67564703 3.38028877 21.67564703 1.56225586 18.18359375 C1.04671143 17.79300781 0.53116699 17.40242188 0 17 C-1.13130884 13.60607349 -1.1329194 10.94665128 -1.125 7.375 C-1.12886719 5.62316406 -1.12886719 5.62316406 -1.1328125 3.8359375 C-1 1 -1 1 0 0 Z M16 9 C15.42214485 11.25577528 15.04962025 13.51340296 14.66015625 15.80859375 C14 18 14 18 12.47216797 19.35620117 C10.06283317 22.04642525 10.75061802 24.6741768 10.89648438 28.12890625 C10.95126953 29.03511719 11.00605469 29.94132812 11.0625 30.875 C11.09021484 31.77347656 11.11792969 32.67195313 11.14648438 33.59765625 C11.42576335 38.9236243 11.89458537 42.22648181 16 46 C22.7738564 50.96994899 29.77017736 52.19520246 38 51 C44.64273698 49.17805681 49.14279209 44.56884393 53 39 C53 38.34 53 37.68 53 37 C52.34 37 51.68 37 51 37 C49.17325084 32.328432 48.75697039 28.44021295 48.8125 23.4375 C48.81894531 22.15746094 48.82539062 20.87742187 48.83203125 19.55859375 C48.97306605 16.57062391 49.3043377 13.89952047 50 11 C44.20030689 5.63528388 38.32523042 2.32876115 30.15625 2.63671875 C25.07404242 3.49296024 19.67233305 5.32766695 16 9 Z M57 6 C52.00889271 11.63512114 50.70002582 15.99741824 50.625 23.5 C50.59664062 24.7890625 50.56828125 26.078125 50.5390625 27.40625 C50.66731603 31.05719308 50.66731603 31.05719308 53.0390625 33.32421875 C56.07513699 37.4670694 55.19082309 41.36198678 54.75 46.3125 C54.68425781 47.24384766 54.61851563 48.17519531 54.55078125 49.13476562 C54.38633059 51.42532842 54.20220182 53.71251239 54 56 C55.32 56 56.64 56 58 56 C58 39.5 58 23 58 6 C57.67 6 57.34 6 57 6 Z M7 21 C6.20679475 25.26241969 5.82268505 29.37923686 5.68359375 33.7109375 C5.64169922 34.95488281 5.59980469 36.19882812 5.55664062 37.48046875 C5.51732422 38.76566406 5.47800781 40.05085938 5.4375 41.375 C5.39431641 42.68339844 5.35113281 43.99179687 5.30664062 45.33984375 C5.20087571 48.55979797 5.09878421 51.77982531 5 55 C6.32 55.66 7.64 56.32 9 57 C10.33494738 55.88983885 10.33494738 55.88983885 10.1328125 53.0703125 C10.1115908 42.35335522 9.65108786 31.6964435 9 21 C8.34 21 7.68 21 7 21 Z " fill="#ffffff" transform="translate(2,2)"/>
<path d="M0 0 C3.31164542 3.49518239 5.03062201 6.76688681 5.29296875 11.6015625 C4.90255996 16.10900942 3.04046291 19.48862592 0.18359375 22.8984375 C-3.79612403 26.15457023 -6.57642002 26.99293523 -11.85546875 26.8359375 C-16.37068302 26.27807319 -19.16056978 24.36251747 -22.19140625 21.0859375 C-25.02288074 16.89116048 -25.21654003 13.56603578 -24.87890625 8.5859375 C-22.9863328 3.32878903 -20.35255474 0.71749144 -15.87890625 -2.4140625 C-10.76090464 -4.48892802 -4.37299225 -3.29110851 0 0 Z M-17.87890625 2.5859375 C-20.33977208 5.2361007 -21.75157186 7.14196547 -22.07421875 10.80078125 C-21.84595955 14.83559822 -21.1435119 17.18902903 -18.87890625 20.5859375 C-14.9124662 23.23023087 -11.62786018 24.00471651 -6.87890625 23.5859375 C-3.05229692 21.81435911 -1.32322724 20.23091959 1.05859375 16.7734375 C2.38262496 12.80134386 2.28967312 10.60292908 1.12109375 6.5859375 C-1.77754581 2.96263805 -4.41323627 0.87863144 -8.87890625 -0.4140625 C-12.72650163 -0.4140625 -14.60172513 0.57950008 -17.87890625 2.5859375 Z " fill="#B90808" transform="translate(43.87890625,17.4140625)"/>
<path d="M0 0 C0.66 0 1.32 0 2 0 C2 4.62 2 9.24 2 14 C1.01 14 0.02 14 -1 14 C-1.02685938 11.85423363 -1.04633088 9.70837355 -1.0625 7.5625 C-1.07410156 6.36753906 -1.08570313 5.17257812 -1.09765625 3.94140625 C-1 1 -1 1 0 0 Z " fill="#ffffff" transform="translate(9,2)"/>
</svg>