<svg xmlns="http://www.w3.org/2000/svg" version="1.1" width="64" height="64">
<path d="M0 0 C1.35085807 0.63040043 2.68252676 1.30251417 4 2 C6.02455996 2.49892414 8.05216237 2.93545628 10.09765625 3.33984375 C12.42395793 4.14712298 13.38169995 5.1578925 15 7 C15.83337891 7.90685547 15.83337891 7.90685547 16.68359375 8.83203125 C24.10529613 17.21243906 28.35661808 23.76273852 28.1953125 35.2421875 C28.1924826 36.01055939 28.18965271 36.77893127 28.18673706 37.57058716 C28.17561311 40.00555521 28.1505236 42.44014462 28.125 44.875 C28.11496011 46.53384882 28.10583603 48.19270346 28.09765625 49.8515625 C28.07569937 53.90118579 28.04122406 57.95052887 28 62 C26.02 62 24.04 62 22 62 C21.505 53.09 21.505 53.09 21 44 C20.814375 46.1346875 20.814375 46.1346875 20.625 48.3125 C20.32124018 51.80573798 20.02350324 52.96474514 18 56 C18.31506627 59.14221967 18.31506627 59.14221967 19 62 C15.75 62.375 15.75 62.375 12 62 C11.48953125 61.01773438 10.9790625 60.03546875 10.453125 59.0234375 C8.37803796 55.85142841 8.37803796 55.85142841 5.68652344 55.40966797 C2.77025037 55.190559 -0.07652171 55.18201213 -3 55.25 C-4.49660156 55.21519531 -4.49660156 55.21519531 -6.0234375 55.1796875 C-8.82731268 55.20223877 -11.28185574 55.30640853 -14 56 C-16.506151 58.88179406 -16.506151 58.88179406 -18 62 C-21.75 62.375 -21.75 62.375 -25 62 C-24.690625 60.329375 -24.690625 60.329375 -24.375 58.625 C-24.25125 57.42875 -24.1275 56.2325 -24 55 C-24.66 54.34 -25.32 53.68 -26 53 C-26.57184935 50.0112779 -26.73964622 47.03746074 -27 44 C-27.33 49.94 -27.66 55.88 -28 62 C-29.98 62 -31.96 62 -34 62 C-34.0996515 57.18031697 -34.17183311 52.36124723 -34.21972656 47.54077148 C-34.23971332 45.90459736 -34.26691243 44.26849349 -34.30175781 42.63256836 C-34.51683717 32.26764113 -34.5765531 24.18080719 -28.18359375 15.546875 C-27.60738281 14.95390625 -27.03117187 14.3609375 -26.4375 13.75 C-24.37425727 11.54628117 -22.85325483 9.74998971 -21.3125 7.125 C-18.45348884 2.49612479 -12.96256786 2.20062126 -8 1 C-5.2201184 -0.3899408 -3.0813674 -0.18488204 0 0 Z M-6.375 3.875 C-6.91125 4.24625 -7.4475 4.6175 -8 5 C-8 6.98 -8 8.96 -8 11 C-3.87851657 12.82660197 -3.87851657 12.82660197 0.375 12.125 C0.91125 11.75375 1.4475 11.3825 2 11 C2 9.02 2 7.04 2 5 C-2.12148343 3.17339803 -2.12148343 3.17339803 -6.375 3.875 Z M6 6 C5.34 6.66 4.68 7.32 4 8 C5.98 8 7.96 8 10 8 C10 9.98 10 11.96 10 14 C7.69 14 5.38 14 3 14 C4.485 14.99 4.485 14.99 6 16 C9.1628485 15.19595537 9.1628485 15.19595537 12 14 C12 12.02 12 10.04 12 8 C10.02 7.34 8.04 6.68 6 6 Z M-16.25 6.875 C-16.8275 7.24625 -17.405 7.6175 -18 8 C-18 9.98 -18 11.96 -18 14 C-15.1628485 15.19595537 -15.1628485 15.19595537 -12 16 C-11.01 15.34 -10.02 14.68 -9 14 C-11.31 14 -13.62 14 -16 14 C-16 12.02 -16 10.04 -16 8 C-14.02 8 -12.04 8 -10 8 C-12.94409363 6.06403854 -12.94409363 6.06403854 -16.25 6.875 Z M-8 17 C-11.84500189 18.92250095 -16.00194019 18.23017225 -20 17 C-24.59309583 22.3850089 -27.51819201 26.74531181 -27 34 C-25.02 34 -23.04 34 -21 34 C-20.67 32.68 -20.34 31.36 -20 30 C-14.19089861 28.3364846 -9.02884225 27.68827124 -3 27.75 C-2.24460937 27.74226563 -1.48921875 27.73453125 -0.7109375 27.7265625 C4.4975749 27.74446117 8.99276147 28.56610897 14 30 C14.495 31.98 14.495 31.98 15 34 C16.98 34 18.96 34 21 34 C21.75359356 28.12197027 19.49687279 23.60114841 16 19 C14.04889585 17.61678439 14.04889585 17.61678439 12 17 C11.34 17.33 10.68 17.66 10 18 C5.88058073 18.26865778 3.61669942 17.80834971 0 16 C-3.07921132 15.74339906 -5.21136993 15.60568496 -8 17 Z M22 23 C23 25 23 25 23 25 Z M-30 25 C-29 27 -29 27 -29 27 Z M23 25 C24 27 24 27 24 27 Z M-31 28 C-32.22399452 34.64041122 -32.11227753 41.20221697 -32.0625 47.9375 C-32.05798828 49.09830078 -32.05347656 50.25910156 -32.04882812 51.45507812 C-32.03710647 54.30343934 -32.0206976 57.15169222 -32 60 C-31.34 60 -30.68 60 -30 60 C-30 49.44 -30 38.88 -30 28 C-30.33 28 -30.66 28 -31 28 Z M24 28 C24 38.56 24 49.12 24 60 C24.66 60 25.32 60 26 60 C26.02921779 55.97918212 26.04687188 51.95839186 26.0625 47.9375 C26.07087891 46.80376953 26.07925781 45.67003906 26.08789062 44.50195312 C26.10424847 38.89121133 26.01812097 33.52350669 25 28 C24.67 28 24.34 28 24 28 Z M-19 33 C-19 36.96 -19 40.92 -19 45 C-8.44 45 2.12 45 13 45 C13 41.04 13 37.08 13 33 C8.0478984 30.95085451 4.42877386 29.62985633 -1 30 C-3.25086789 30 -5.50434581 29.96561279 -7.75 29.8125 C-11.98726023 30.05695732 -15.08422049 31.37967744 -19 33 Z M-26 37 C-26 38.32 -26 39.64 -26 41 C-25.34 41 -24.68 41 -24 41 C-24.01160156 41.62648438 -24.02320313 42.25296875 -24.03515625 42.8984375 C-24.04417969 43.71570312 -24.05320312 44.53296875 -24.0625 45.375 C-24.07410156 46.18710937 -24.08570313 46.99921875 -24.09765625 47.8359375 C-24.14466334 50.04937142 -24.14466334 50.04937142 -23 52 C-22.34 52 -21.68 52 -21 52 C-20.97306425 49.87506859 -20.95363372 47.75004088 -20.9375 45.625 C-20.92589844 44.44164062 -20.91429687 43.25828125 -20.90234375 42.0390625 C-20.78533407 39.08078479 -20.78533407 39.08078479 -22 37 C-23.32 37 -24.64 37 -26 37 Z M16 37 C14.55792059 39.88415883 14.90605113 42.41721528 14.9375 45.625 C14.94652344 46.81351563 14.95554688 48.00203125 14.96484375 49.2265625 C14.97644531 50.14179687 14.98804688 51.05703125 15 52 C15.66 52 16.32 52 17 52 C18.20272819 49.59454362 18.10071472 48.05003047 18.0625 45.375 C18.04896484 44.14910156 18.04896484 44.14910156 18.03515625 42.8984375 C18.02355469 42.27195312 18.01195312 41.64546875 18 41 C18.66 41 19.32 41 20 41 C20 39.68 20 38.36 20 37 C18.68 37 17.36 37 16 37 Z M-17 47 C-17.66 48.32 -18.32 49.64 -19 51 C-17.11153817 53.32866229 -17.11153817 53.32866229 -13.9609375 53.1953125 C-12.77757812 53.17210937 -11.59421875 53.14890625 -10.375 53.125 C-9.18648437 53.10695313 -7.99796875 53.08890625 -6.7734375 53.0703125 C-5.85820312 53.04710937 -4.94296875 53.02390625 -4 53 C-4.37904208 49.70924004 -4.37904208 49.70924004 -6 47 C-7.85287502 46.92773498 -9.70833878 46.9161878 -11.5625 46.9375 C-12.57441406 46.94652344 -13.58632813 46.95554688 -14.62890625 46.96484375 C-15.41136719 46.97644531 -16.19382812 46.98804688 -17 47 Z M-2 49 C-2 50.32 -2 51.64 -2 53 C2.29 53 6.58 53 11 53 C11.66 51.68 12.32 50.36 13 49 C11.16888152 46.74924955 11.16888152 46.74924955 8.46875 46.734375 C7.4890625 46.73953125 6.509375 46.7446875 5.5 46.75 C4.5203125 46.74484375 3.540625 46.7396875 2.53125 46.734375 C-0.16888152 46.74924955 -0.16888152 46.74924955 -2 49 Z M-20 55 C-19.67 55.66 -19.34 56.32 -19 57 C-18.67 56.34 -18.34 55.68 -18 55 C-18.66 55 -19.32 55 -20 55 Z M12 55 C12.66 55.66 13.32 56.32 14 57 C14 56.34 14 55.68 14 55 C13.34 55 12.68 55 12 55 Z M-21 57 C-20 59 -20 59 -20 59 Z M14 57 C15 59 15 59 15 59 Z " fill="#fff" transform="translate(35,1)"/>
<path d="M0 0 C1.98 0 3.96 0 6 0 C6 1.98 6 3.96 6 6 C4.02 6 2.04 6 0 6 C0 4.02 0 2.04 0 0 Z " fill="#B90808" transform="translate(29,6)"/>
<path d="M0 0 C0.66 0 1.32 0 2 0 C2 0.66 2 1.32 2 2 C1.34 2 0.68 2 0 2 C0 1.34 0 0.68 0 0 Z " fill="#B90808" transform="translate(40,39)"/>
<path d="M0 0 C0.66 0 1.32 0 2 0 C2 0.66 2 1.32 2 2 C1.34 2 0.68 2 0 2 C0 1.34 0 0.68 0 0 Z " fill="#B90808" transform="translate(34,39)"/>
<path d="M0 0 C0.66 0 1.32 0 2 0 C2 0.66 2 1.32 2 2 C1.34 2 0.68 2 0 2 C0 1.34 0 0.68 0 0 Z " fill="#B90808" transform="translate(28,39)"/>
<path d="M0 0 C0.66 0 1.32 0 2 0 C2 0.66 2 1.32 2 2 C1.34 2 0.68 2 0 2 C0 1.34 0 0.68 0 0 Z " fill="#B90808" transform="translate(22,39)"/>
</svg>